<?xml version="1.0" encoding="iso-8859-1"?>
<!-- Generator: Adobe Illustrator 19.0.0, SVG Export Plug-In . SVG Version: 6.00 Build 0)  -->
<svg version="1.1" id="Capa_1" xmlns="http://www.w3.org/2000/svg" xmlns:xlink="http://www.w3.org/1999/xlink" x="0px" y="0px"
	 viewBox="0 0 384 384" style="enable-background:new 0 0 384 384;" xml:space="preserve">
<g>
	<g>
		<path d="M368,176h-19.256c-3.184-31.456-15.696-60.192-34.672-83.44l13.696-13.696c6.248-6.248,6.248-16.376,0-22.624
			c-6.24-6.248-16.376-6.248-22.624,0l-13.696,13.696c-23.256-18.976-51.984-31.488-83.44-34.672V16c0-8.832-7.168-16-16-16
			c-8.832,0-16,7.168-16,16v19.264c-31.456,3.184-60.184,15.696-83.44,34.672L78.864,56.232c-6.248-6.248-16.384-6.248-22.624,0
			c-6.248,6.248-6.248,16.376,0,22.624L69.944,92.56c-18.976,23.256-31.488,51.984-34.68,83.44H16c-8.832,0-16,7.168-16,16
			c0,8.832,7.168,16,16,16h19.264c3.184,31.456,15.696,60.184,34.672,83.44L56.24,305.136c-6.248,6.248-6.248,16.376,0,22.624
			c3.128,3.128,7.216,4.688,11.312,4.688s8.192-1.56,11.312-4.688l13.696-13.696c23.256,18.976,51.984,31.488,83.44,34.672V368
			c0,8.832,7.168,16,16,16c8.832,0,16-7.168,16-16v-19.264c31.456-3.184,60.192-15.696,83.44-34.672l13.696,13.696
			c3.128,3.128,7.216,4.688,11.312,4.688s8.192-1.56,11.312-4.688c6.248-6.248,6.248-16.376,0-22.624l-13.696-13.696
			c18.976-23.248,31.488-51.976,34.672-83.44H368c8.832,0,16-7.168,16-16C384,183.168,376.832,176,368,176z M316.416,176h-77.344
			c-0.704-2.056-1.536-4.04-2.488-5.968l54.656-54.648C304.576,132.616,313.52,153.352,316.416,176z M208.008,67.584
			c22.64,2.904,43.376,11.848,60.608,25.176l-54.656,54.656c-1.92-0.952-3.904-1.784-5.952-2.488V67.584z M176,67.592v77.344
			c-2.048,0.696-4.032,1.536-5.952,2.488l-54.656-54.656C132.624,79.432,153.36,70.488,176,67.592z M92.768,115.384l54.656,54.656
			c-0.952,1.928-1.792,3.912-2.488,5.968H67.592C70.488,153.352,79.432,132.616,92.768,115.384z M67.592,208h77.344
			c0.704,2.056,1.536,4.04,2.488,5.96l-54.656,54.656C79.432,251.384,70.488,230.648,67.592,208z M176.008,316.416
			c-22.648-2.904-43.392-11.848-60.616-25.176l54.656-54.656c1.92,0.952,3.904,1.784,5.96,2.488V316.416z M204.56,204.544
			c0,0,0,0-0.008,0.008c-3.216,3.216-7.656,5.208-12.552,5.208c-9.792,0-17.76-7.968-17.76-17.76c0-9.792,7.968-17.76,17.76-17.76
			c9.768,0,17.712,7.92,17.752,17.68c0,0.024-0.008,0.048-0.008,0.08s0.008,0.048,0.008,0.08
			C209.728,196.944,207.752,201.352,204.56,204.544z M208,316.408v-77.344c2.056-0.696,4.04-1.536,5.96-2.488l54.656,54.656
			C251.392,304.568,230.648,313.512,208,316.408z M291.248,268.608l-54.656-54.656c0.952-1.92,1.784-3.904,2.488-5.96h77.344
			C313.52,230.648,304.576,251.384,291.248,268.608z"/>
	</g>
</g>
<g>
</g>
<g>
</g>
<g>
</g>
<g>
</g>
<g>
</g>
<g>
</g>
<g>
</g>
<g>
</g>
<g>
</g>
<g>
</g>
<g>
</g>
<g>
</g>
<g>
</g>
<g>
</g>
<g>
</g>
</svg>
